<?xml version="1.0" encoding="utf-8"?>
<!-- Generator: Adobe Illustrator 27.1.1, SVG Export Plug-In . SVG Version: 6.00 Build 0)  -->
<svg version="1.1" id="Layer_1" xmlns="http://www.w3.org/2000/svg" xmlns:xlink="http://www.w3.org/1999/xlink" x="0px" y="0px"
	 viewBox="0 0 612 792" style="enable-background:new 0 0 612 792;" xml:space="preserve">
<style type="text/css">
	.st0{fill:#F9ED2F;}
	.st1{fill:#FEDA00;}
	.st2{fill:#F3B31B;}
	.st3{opacity:0.25;fill:#FFF09A;}
	.st4{opacity:0.15;fill:#544118;}
	.st5{opacity:0.18;fill:#FEDA00;}
</style>
<g>
	<circle class="st0" cx="306.5" cy="396.5" r="64.5"/>
	<circle class="st1" cx="306.89" cy="396.89" r="62.31"/>
	<circle class="st0" cx="306.89" cy="396.89" r="52.64"/>
	<circle class="st2" cx="306.89" cy="396.89" r="49.14"/>
	<path class="st3" d="M263.67,396.89c0-26.15,20.42-47.51,46.18-49.05c-0.98-0.06-1.97-0.1-2.96-0.1c-27.14,0-49.14,22-49.14,49.14
		c0,27.14,22,49.14,49.14,49.14c0.99,0,1.98-0.04,2.96-0.1C284.09,444.41,263.67,423.04,263.67,396.89z"/>
	<path class="st2" d="M356.04,396.89c0-26.15-20.42-47.51-46.18-49.05c-25.76,1.53-46.18,22.9-46.18,49.05
		c0,26.15,20.42,47.51,46.18,49.05C335.61,444.41,356.04,423.04,356.04,396.89z"/>
	<path class="st4" d="M326.39,351.78c14.87,8.45,24.91,24.42,24.91,42.75c0,27.14-22,49.14-49.14,49.14
		c-6.93,0-13.52-1.44-19.5-4.03c7.15,4.06,15.42,6.4,24.23,6.4c27.14,0,49.14-22,49.14-49.14
		C356.04,376.68,343.83,359.33,326.39,351.78z"/>
	<path class="st5" d="M257.75,396.89c0,13.11,5.14,25.01,13.51,33.82l1.82,1.82c8.81,8.36,20.71,13.51,33.82,13.51
		c8.25,0,16.02-2.04,22.84-5.63l-66.35-66.35C259.79,380.88,257.75,388.64,257.75,396.89z"/>
	<path class="st5" d="M356.04,396.89c0-2.17-0.16-4.31-0.43-6.41l-42.3-42.3c-2.1-0.27-4.23-0.43-6.41-0.43
		c-7.04,0-13.72,1.49-19.77,4.15l64.76,64.76C354.55,410.62,356.04,403.93,356.04,396.89z"/>
	<path class="st2" d="M273.07,432.53l-1.82-1.82C271.85,431.33,272.45,431.94,273.07,432.53z"/>
	<g>
		<g>
			<path class="st0" d="M272.98,396.97l0.88-18.9h17.93v6.24h-12.06l-0.32,6.47c1.62-1.43,3.23-2.13,5.41-2.13
				c7.21,0,8.41,6.1,8.41,11.97c0,7.49-2.5,12.2-10.63,12.2c-5.96,0-8.78-2.77-9.84-8.41v-2.63h7.3c0.18,1.66-0.19,4.99,2.4,5.27
				c3.05,0.32,3.05-3.93,3.05-5.73c0-2.17,0.32-6.88-3-6.88c-1.62,0-2.59,0.92-2.73,2.54H272.98z"/>
			<path class="st0" d="M295.76,387.13c0-6.93,3.7-9.8,10.3-9.8c8.32,0,10.35,4.02,10.21,11.78v12.48c0,7.58-2.4,11.23-10.3,11.23
				c-6.47,0-10.21-2.87-10.21-9.56V387.13z M308.56,387.13c0-0.51,0.28-4.02-2.5-4.02c-2.5,0-2.59,2.08-2.59,4.02v15.57
				c0,2.03,0,4.34,2.59,4.34c2.63-0.09,2.5-3.14,2.5-4.34V387.13z"/>
			<path class="st0" d="M318.87,387.13c0-6.93,3.7-9.8,10.3-9.8c8.32,0,10.35,4.02,10.21,11.78v12.48c0,7.58-2.4,11.23-10.3,11.23
				c-6.47,0-10.21-2.87-10.21-9.56V387.13z M331.66,387.13c0-0.51,0.28-4.02-2.5-4.02c-2.49,0-2.59,2.08-2.59,4.02v15.57
				c0,2.03,0,4.34,2.59,4.34c2.63-0.09,2.5-3.14,2.5-4.34V387.13z"/>
		</g>
	</g>
</g>
</svg>
